{
    "asset" : {
        "generator" : "Khronos glTF Blender I/O v1.6.16",
        "version" : "2.0"
    },
    "scene" : 0,
    "scenes" : [
        {
            "name" : "Scene",
            "nodes" : [
                0,
                1,
                2
            ]
        }
    ],
    "nodes" : [
        {
            "mesh" : 0,
            "name" : "LowPolyRoom",
            "rotation" : [
                0.7071068286895752,
                0,
                0,
                0.7071067094802856
            ],
            "translation" : [
                -1.1294982433319092,
                1.0682207345962524,
                -0.9073483347892761
            ]
        },
        {
            "mesh" : 1,
            "name" : "frame.001",
            "translation" : [
                0,
                1.8315668106079102,
                -0.2518710196018219
            ]
        },
        {
            "mesh" : 2,
            "name" : "frame",
            "translation" : [
                3.2777864933013916,
                2.0116524696350098,
                -3.580883026123047
            ]
        }
    ],
    "materials" : [
        {
            "doubleSided" : true,
            "name" : "Interior_Mat",
            "pbrMetallicRoughness" : {
                "baseColorTexture" : {
                    "index" : 0
                },
                "metallicFactor" : 0,
                "roughnessFactor" : 0.5
            }
        }
    ],
    "meshes" : [
        {
            "name" : "LowPolyRoom",
            "primitives" : [
                {
                    "attributes" : {
                        "POSITION" : 0,
                        "NORMAL" : 1,
                        "TEXCOORD_0" : 2
                    },
                    "indices" : 3,
                    "material" : 0
                }
            ]
        },
        {
            "name" : "Plane",
            "primitives" : [
                {
                    "attributes" : {
                        "POSITION" : 4,
                        "NORMAL" : 5,
                        "TEXCOORD_0" : 6
                    },
                    "indices" : 7
                }
            ]
        },
        {
            "name" : "Plane.001",
            "primitives" : [
                {
                    "attributes" : {
                        "POSITION" : 8,
                        "NORMAL" : 9,
                        "TEXCOORD_0" : 10
                    },
                    "indices" : 7
                }
            ]
        }
    ],
    "textures" : [
        {
            "sampler" : 0,
            "source" : 0
        }
    ],
    "images" : [
        {
            "bufferView" : 4,
            "mimeType" : "image/png",
            "name" : "LowPolyRoom"
        }
    ],
    "accessors" : [
        {
            "bufferView" : 0,
            "componentType" : 5126,
            "count" : 18318,
            "max" : [
                5.429499626159668,
                5.707348823547363,
                1.218220591545105
            ],
            "min" : [
                -3.663120985031128,
                -3.0926513671875,
                -3.0317792892456055
            ],
            "type" : "VEC3"
        },
        {
            "bufferView" : 1,
            "componentType" : 5126,
            "count" : 18318,
            "type" : "VEC3"
        },
        {
            "bufferView" : 2,
            "componentType" : 5126,
            "count" : 18318,
            "type" : "VEC2"
        },
        {
            "bufferView" : 3,
            "componentType" : 5123,
            "count" : 21768,
            "type" : "SCALAR"
        },
        {
            "bufferView" : 5,
            "componentType" : 5126,
            "count" : 4,
            "max" : [
                1.910685676922942e-15,
                1,
                1
            ],
            "min" : [
                -1.910685676922942e-15,
                -1,
                -1
            ],
            "type" : "VEC3"
        },
        {
            "bufferView" : 6,
            "componentType" : 5126,
            "count" : 4,
            "type" : "VEC3"
        },
        {
            "bufferView" : 7,
            "componentType" : 5126,
            "count" : 4,
            "type" : "VEC2"
        },
        {
            "bufferView" : 8,
            "componentType" : 5123,
            "count" : 6,
            "type" : "SCALAR"
        },
        {
            "bufferView" : 9,
            "componentType" : 5126,
            "count" : 4,
            "max" : [
                1,
                0.9999756217002869,
                0.0069814035668969154
            ],
            "min" : [
                -1,
                -0.9999756217002869,
                -0.0069814035668969154
            ],
            "type" : "VEC3"
        },
        {
            "bufferView" : 10,
            "componentType" : 5126,
            "count" : 4,
            "type" : "VEC3"
        },
        {
            "bufferView" : 11,
            "componentType" : 5126,
            "count" : 4,
            "type" : "VEC2"
        }
    ],
    "bufferViews" : [
        {
            "buffer" : 0,
            "byteLength" : 219816,
            "byteOffset" : 0
        },
        {
            "buffer" : 0,
            "byteLength" : 219816,
            "byteOffset" : 219816
        },
        {
            "buffer" : 0,
            "byteLength" : 146544,
            "byteOffset" : 439632
        },
        {
            "buffer" : 0,
            "byteLength" : 43536,
            "byteOffset" : 586176
        },
        {
            "buffer" : 0,
            "byteLength" : 14490,
            "byteOffset" : 629712
        },
        {
            "buffer" : 0,
            "byteLength" : 48,
            "byteOffset" : 644204
        },
        {
            "buffer" : 0,
            "byteLength" : 48,
            "byteOffset" : 644252
        },
        {
            "buffer" : 0,
            "byteLength" : 32,
            "byteOffset" : 644300
        },
        {
            "buffer" : 0,
            "byteLength" : 12,
            "byteOffset" : 644332
        },
        {
            "buffer" : 0,
            "byteLength" : 48,
            "byteOffset" : 644344
        },
        {
            "buffer" : 0,
            "byteLength" : 48,
            "byteOffset" : 644392
        },
        {
            "buffer" : 0,
            "byteLength" : 32,
            "byteOffset" : 644440
        }
    ],
    "samplers" : [
        {
            "magFilter" : 9729,
            "minFilter" : 9987
        }
    ],
    "buffers" : [
        {
            "byteLength" : 644472,
            "uri" : "data:application/octet-stream;base64,"
        }
    ]
}
